<svg width="14" height="17" viewBox="0 0 14 17" fill="none" xmlns="http://www.w3.org/2000/svg">
<path fill-rule="evenodd" clip-rule="evenodd" d="M11.7281 4.58735C11.7281 7.12075 9.61112 9.17447 6.99998 9.17447C4.38884 9.17447 2.27209 7.12097 2.27209 4.58735C2.27209 2.05373 4.38884 0 6.99998 0C9.61112 0 11.7281 2.05395 11.7281 4.58735ZM8.18143 2.87182C7.83172 2.64511 7.42058 2.5241 6.99998 2.5241V2.52344C6.43605 2.52402 5.8954 2.74168 5.49671 3.12863C5.09801 3.51558 4.87385 4.0402 4.87343 4.58735C4.87343 4.99542 4.99815 5.39432 5.23181 5.73362C5.46548 6.07292 5.79761 6.33737 6.18618 6.49353C6.57476 6.6497 7.00234 6.69055 7.41485 6.61094C7.82736 6.53133 8.20628 6.33483 8.50369 6.04628C8.80109 5.75773 9.00362 5.39009 9.08568 4.98986C9.16773 4.58963 9.12562 4.17479 8.96467 3.79778C8.80371 3.42077 8.53115 3.09853 8.18143 2.87182ZM0 17C0 13.2491 3.13405 10.2084 7 10.2084C10.8659 10.2084 14 13.2491 14 17H10.993C10.993 14.8639 9.20207 13.1263 7.00046 13.1263C4.79884 13.1263 3.00789 14.8644 3.00789 17H0Z" fill="#FCFCFC"/>
</svg>
