<svg width="24" height="31" viewBox="0 0 24 31" fill="none" xmlns="http://www.w3.org/2000/svg">
<path fill-rule="evenodd" clip-rule="evenodd" d="M20.1053 8.59532C20.1053 13.066 16.4762 16.6902 12 16.6902C7.52373 16.6902 3.89502 13.0664 3.89502 8.59532C3.89502 4.12422 7.52373 0.5 12 0.5C16.4762 0.5 20.1053 4.12461 20.1053 8.59532ZM14.0253 5.56792C13.4258 5.16784 12.721 4.9543 12 4.9543V4.95313C11.0332 4.95416 10.1064 5.33826 9.42292 6.02111C8.73945 6.70396 8.35517 7.62977 8.35444 8.59532C8.35444 9.31544 8.56825 10.0194 8.96883 10.6182C9.3694 11.2169 9.93876 11.6836 10.6049 11.9592C11.271 12.2348 12.004 12.3069 12.7112 12.1664C13.4183 12.0259 14.0679 11.6791 14.5777 11.1699C15.0876 10.6607 15.4348 10.0119 15.5754 9.30564C15.7161 8.59935 15.6439 7.86727 15.368 7.20196C15.0921 6.53665 14.6248 5.968 14.0253 5.56792ZM0 30.5C0 23.8808 5.37266 18.5148 12 18.5148C18.6273 18.5148 24 23.8808 24 30.5H18.8452C18.8452 26.7305 15.775 23.664 12.0008 23.664C8.22658 23.664 5.15638 26.7312 5.15638 30.5H0Z" fill="#006464"/>
</svg>
