<svg width="75" height="30" viewBox="0 0 75 30" fill="none" xmlns="http://www.w3.org/2000/svg">
<g clip-path="url(#clip0_784_13768)">
<path d="M61.2716 16.9998C61.327 15.9192 61.1813 14.5985 61.364 13.2958C61.7642 10.4062 64.4219 8.00284 67.3896 7.69267C68.3621 7.5963 69.3444 7.70257 70.2716 8.00443C71.1988 8.30629 72.0496 8.79684 72.7676 9.44358C73.4856 10.0903 74.0545 10.8785 74.4364 11.7558C74.8184 12.6331 75.0047 13.5796 74.9832 14.5324C74.9565 16.5336 74.9667 18.5347 74.9832 20.5198C74.9832 20.92 74.8621 21.018 74.4701 21.006C73.5671 20.978 72.6599 20.978 71.7569 21.006C71.3793 21.018 71.2685 20.928 71.2726 20.5458C71.2931 18.466 71.2931 16.3875 71.2726 14.3103C71.2582 12.5093 69.7231 11.0465 67.9786 11.1206C66.3142 11.1926 64.9596 12.6234 64.9473 14.3664C64.9309 16.4115 64.9288 18.4566 64.9473 20.5017C64.9473 20.934 64.816 21.02 64.4055 21.006C63.484 20.976 62.5584 20.986 61.639 21.006C61.3311 21.006 61.2285 20.936 61.2285 20.6218C61.2839 19.4932 61.2716 18.3626 61.2716 16.9998Z" fill="#FCFCFC"/>
<path d="M32.4673 10.7494C32.4673 7.50964 32.4673 4.26985 32.457 1.03006C32.457 0.62984 32.5207 0.481758 32.9722 0.501769C33.8588 0.53979 34.7474 0.535788 35.6402 0.501769C36.0671 0.485761 36.1717 0.601824 36.1717 1.01805C36.1553 6.73321 36.1553 12.4484 36.1717 18.1635C36.1717 18.964 36.1553 19.7644 36.1717 20.5648C36.1717 20.901 36.1061 21.0271 35.7284 21.0171C34.7926 20.9911 33.8526 20.9911 32.9147 21.0171C32.5514 21.0271 32.4652 20.923 32.4652 20.5768C32.4714 17.295 32.4673 14.0212 32.4673 10.7494Z" fill="#FCFCFC"/>
<path d="M11.8284 29.4608H11.4179C11.0075 29.4608 10.556 29.5669 10.2009 29.4308C9.79044 29.2747 9.97515 28.7444 9.83559 28.3922C9.59013 27.7676 9.14671 27.2355 8.56981 26.8735C7.99291 26.5114 7.3126 26.3382 6.62781 26.3791C5.94228 26.4202 5.29051 26.6835 4.77619 27.1274C4.26187 27.5712 3.91454 28.17 3.78946 28.8285C3.6971 29.3908 3.48161 29.4968 2.96853 29.4728C2.1004 29.4308 1.22816 29.4488 0.357976 29.4728C0.0542327 29.4728 -0.0052848 29.3728 0.0049768 29.0966C0.10554 26.171 2.43082 23.5416 5.4621 22.9212C6.95164 22.6242 8.50013 22.8165 9.86574 23.4682C11.2313 24.1198 12.3372 25.1941 13.0105 26.5232C13.3973 27.3191 13.633 28.1768 13.7063 29.0546C13.7371 29.3668 13.6734 29.5028 13.3122 29.4808C12.8197 29.4388 12.323 29.4608 11.8284 29.4608Z" fill="#FCFCFC"/>
<path d="M42.5634 14.2948C42.5634 16.3739 42.5634 18.4511 42.5634 20.5282C42.5634 20.8824 42.5019 21.0245 42.0955 21.0105C41.1576 20.9785 40.2176 20.9885 39.2777 21.0105C38.978 21.0105 38.8672 20.9505 38.8672 20.6283C38.8795 16.4393 38.8795 12.251 38.8672 8.06336C38.8672 7.72717 38.9801 7.64113 39.3084 7.64713C40.2299 7.66514 41.1555 7.67114 42.0729 7.64713C42.4526 7.63712 42.5675 7.74118 42.5634 8.11939C42.5532 10.1745 42.5634 12.2357 42.5634 14.2948Z" fill="#FCFCFC"/>
<path d="M40.7302 2.30859C41.2228 2.30859 41.7174 2.3206 42.212 2.30859C42.4706 2.30859 42.5712 2.37063 42.5671 2.64078C42.5527 3.60331 42.5547 4.56584 42.5671 5.52837C42.5671 5.79652 42.5014 5.91458 42.1976 5.90858C41.2084 5.89257 40.2213 5.89657 39.232 5.90858C38.9652 5.90858 38.8749 5.82253 38.877 5.56639C38.877 4.58585 38.8914 3.60731 38.877 2.62877C38.877 2.34061 39.0083 2.30459 39.2485 2.31059C39.741 2.30859 40.2356 2.30859 40.7302 2.30859Z" fill="#FCFCFC"/>
<path fill-rule="evenodd" clip-rule="evenodd" d="M13.7178 14.9476C13.7445 13.6288 13.3074 12.4382 12.4864 11.2675C12.6327 11.2675 12.7721 11.2669 12.9064 11.2662C13.2901 11.2644 13.6318 11.2627 13.9723 11.2775C14.2432 11.2875 14.3212 11.1855 14.3212 10.9294C14.3068 9.96482 14.3007 9.00029 14.3212 8.03776C14.3335 7.71558 14.2083 7.65154 13.9107 7.65154C12.9742 7.65707 12.0374 7.65325 11.1006 7.64942C9.66422 7.64356 8.228 7.63769 6.79329 7.66555C3.02113 7.74159 0.0411569 10.6552 0.00626749 14.2312C-0.00509523 15.2483 0.22095 16.2547 0.6673 17.1741C1.11365 18.0935 1.76861 18.9019 2.58264 19.5381C3.39666 20.1743 4.34842 20.6216 5.36591 20.8463C6.3834 21.071 7.43997 21.067 8.45567 20.8348C11.5198 20.1504 13.646 17.7751 13.7178 14.9476ZM8.61836 11.8076C8.10537 11.4643 7.49953 11.2771 6.87743 11.2695C6.04279 11.2599 5.2384 11.5739 4.64111 12.1424C4.04381 12.7109 3.70251 13.4874 3.69223 14.3012C3.68497 14.9078 3.86232 15.5029 4.20186 16.0112C4.5414 16.5195 5.02789 16.9183 5.59982 17.1571C6.17175 17.3958 6.80345 17.4639 7.41505 17.3527C8.02666 17.2415 8.59072 16.9559 9.03593 16.5322C9.48113 16.1085 9.78749 15.5655 9.91628 14.972C10.0451 14.3785 9.9905 13.7611 9.75948 13.1979C9.52846 12.6346 9.13135 12.1508 8.61836 11.8076Z" fill="#FCFCFC"/>
<path fill-rule="evenodd" clip-rule="evenodd" d="M22.3109 20.9968C23.6531 21.0128 24.8496 20.6126 26.0317 19.8122C26.0409 20.041 26.0375 20.2701 26.0214 20.4985C25.9804 20.8667 26.0769 21.0248 26.5078 21.0068C27.4458 20.9748 28.3857 20.9868 29.3236 21.0068C29.6417 21.0188 29.7197 20.9228 29.7197 20.6186C29.712 19.6971 29.715 18.7746 29.718 17.8526C29.7222 16.5622 29.7264 15.2728 29.7013 13.989C29.6233 10.1128 25.6459 7.01111 21.7403 7.74751C17.4633 8.55596 15.0292 12.6002 16.4043 16.6164C17.2929 19.2138 19.6428 20.9548 22.3109 20.9968ZM21.653 17.1582C22.0332 17.3159 22.4415 17.399 22.8547 17.4028C23.6891 17.4105 24.4925 17.0947 25.0881 16.5248C25.6837 15.955 26.0228 15.1778 26.0307 14.3642C26.0386 13.5506 25.7147 12.7672 25.1302 12.1865C24.5458 11.6057 23.7486 11.2751 22.9142 11.2674C22.5011 11.2636 22.0912 11.3392 21.708 11.4899C21.3247 11.6405 20.9757 11.8633 20.6808 12.1454C20.3859 12.4276 20.1509 12.7636 19.9891 13.1344C19.8274 13.5051 19.7422 13.9033 19.7383 14.3061C19.7343 14.709 19.8119 15.1086 19.9664 15.4823C20.1209 15.8559 20.3493 16.1963 20.6387 16.4838C20.9281 16.7714 21.2727 17.0005 21.653 17.1582Z" fill="#FCFCFC"/>
<path fill-rule="evenodd" clip-rule="evenodd" d="M52.4516 20.8751C53.3089 20.6789 54.1188 20.3221 54.8364 19.8245C54.8364 19.9336 54.8385 20.0325 54.8404 20.1246C54.8439 20.291 54.847 20.4352 54.8364 20.5769C54.7995 20.8891 54.8918 21.0051 55.2469 21.0051C56.2074 20.9851 57.1637 20.9911 58.1201 21.0051C58.4074 21.0111 58.5306 20.9631 58.5306 20.6329C58.5196 19.7059 58.5243 18.7789 58.529 17.8522C58.5357 16.5343 58.5425 15.2171 58.5039 13.9012C58.3869 10.0511 54.4444 7.02342 50.5594 7.74582C46.2023 8.55626 43.7662 12.7446 45.289 16.8048C46.4034 19.7805 49.4326 21.5014 52.4516 20.8751ZM54.2846 16.0681C54.6361 15.5674 54.8274 14.9762 54.8344 14.3695C54.8431 13.9657 54.7692 13.5643 54.6169 13.1887C54.4646 12.8132 54.2371 12.471 53.9476 12.1821C53.6581 11.8933 53.3124 11.6637 52.9308 11.5067C52.5492 11.3497 52.1393 11.2685 51.7251 11.2678C51.1028 11.2607 50.4923 11.4337 49.9709 11.7649C49.4495 12.0962 49.0405 12.5707 48.7957 13.1286C48.551 13.6865 48.4814 14.3027 48.5958 14.8991C48.7101 15.4956 49.0034 16.0456 49.4384 16.4795C49.8734 16.9135 50.4306 17.2119 51.0396 17.337C51.6485 17.4621 52.2819 17.4084 52.8595 17.1825C53.4371 16.9566 53.933 16.5688 54.2846 16.0681Z" fill="#FCFCFC"/>
</g>
<defs>
<clipPath id="clip0_784_13768">
<rect width="75" height="29" fill="white" transform="translate(0 0.5)"/>
</clipPath>
</defs>
</svg>
