<svg width="148" height="106" viewBox="0 0 148 106" fill="none" xmlns="http://www.w3.org/2000/svg">
<rect width="148" height="106" fill="#F6F8FB"/>
<path d="M30.1058 86.83H25.8498L25.0658 89H23.7218L27.2498 79.298H28.7198L32.2338 89H30.8898L30.1058 86.83ZM29.7418 85.794L27.9778 80.866L26.2138 85.794H29.7418ZM35.7954 82.742C36.0474 82.3033 36.4207 81.9393 36.9154 81.65C37.4194 81.3513 38.0027 81.202 38.6654 81.202C39.3467 81.202 39.9627 81.3653 40.5134 81.692C41.0734 82.0187 41.512 82.4807 41.8294 83.078C42.1467 83.666 42.3054 84.352 42.3054 85.136C42.3054 85.9107 42.1467 86.6013 41.8294 87.208C41.512 87.8147 41.0734 88.286 40.5134 88.622C39.9627 88.958 39.3467 89.126 38.6654 89.126C38.012 89.126 37.4334 88.9813 36.9294 88.692C36.4347 88.3933 36.0567 88.0247 35.7954 87.586V92.64H34.5214V81.328H35.7954V82.742ZM41.0034 85.136C41.0034 84.5573 40.8867 84.0533 40.6534 83.624C40.42 83.1947 40.1027 82.868 39.7014 82.644C39.3094 82.42 38.8754 82.308 38.3994 82.308C37.9327 82.308 37.4987 82.4247 37.0974 82.658C36.7054 82.882 36.388 83.2133 36.1454 83.652C35.912 84.0813 35.7954 84.5807 35.7954 85.15C35.7954 85.7287 35.912 86.2373 36.1454 86.676C36.388 87.1053 36.7054 87.4367 37.0974 87.67C37.4987 87.894 37.9327 88.006 38.3994 88.006C38.8754 88.006 39.3094 87.894 39.7014 87.67C40.1027 87.4367 40.42 87.1053 40.6534 86.676C40.8867 86.2373 41.0034 85.724 41.0034 85.136ZM46.0063 82.742C46.2583 82.3033 46.6316 81.9393 47.1263 81.65C47.6303 81.3513 48.2136 81.202 48.8763 81.202C49.5576 81.202 50.1736 81.3653 50.7243 81.692C51.2843 82.0187 51.723 82.4807 52.0403 83.078C52.3576 83.666 52.5163 84.352 52.5163 85.136C52.5163 85.9107 52.3576 86.6013 52.0403 87.208C51.723 87.8147 51.2843 88.286 50.7243 88.622C50.1736 88.958 49.5576 89.126 48.8763 89.126C48.223 89.126 47.6443 88.9813 47.1403 88.692C46.6456 88.3933 46.2676 88.0247 46.0063 87.586V92.64H44.7323V81.328H46.0063V82.742ZM51.2143 85.136C51.2143 84.5573 51.0976 84.0533 50.8643 83.624C50.631 83.1947 50.3136 82.868 49.9123 82.644C49.5203 82.42 49.0863 82.308 48.6103 82.308C48.1436 82.308 47.7096 82.4247 47.3083 82.658C46.9163 82.882 46.599 83.2133 46.3563 83.652C46.123 84.0813 46.0063 84.5807 46.0063 85.15C46.0063 85.7287 46.123 86.2373 46.3563 86.676C46.599 87.1053 46.9163 87.4367 47.3083 87.67C47.7096 87.894 48.1436 88.006 48.6103 88.006C49.0863 88.006 49.5203 87.894 49.9123 87.67C50.3136 87.4367 50.631 87.1053 50.8643 86.676C51.0976 86.2373 51.2143 85.724 51.2143 85.136ZM54.4672 85.136C54.4672 84.352 54.6259 83.666 54.9432 83.078C55.2606 82.4807 55.6946 82.0187 56.2452 81.692C56.8052 81.3653 57.4259 81.202 58.1072 81.202C58.7792 81.202 59.3626 81.3467 59.8572 81.636C60.3519 81.9253 60.7206 82.2893 60.9632 82.728V81.328H62.2512V89H60.9632V87.572C60.7112 88.02 60.3332 88.3933 59.8292 88.692C59.3346 88.9813 58.7559 89.126 58.0932 89.126C57.4119 89.126 56.7959 88.958 56.2452 88.622C55.6946 88.286 55.2606 87.8147 54.9432 87.208C54.6259 86.6013 54.4672 85.9107 54.4672 85.136ZM60.9632 85.15C60.9632 84.5713 60.8466 84.0673 60.6132 83.638C60.3799 83.2087 60.0626 82.882 59.6612 82.658C59.2692 82.4247 58.8352 82.308 58.3592 82.308C57.8832 82.308 57.4492 82.42 57.0572 82.644C56.6652 82.868 56.3526 83.1947 56.1192 83.624C55.8859 84.0533 55.7692 84.5573 55.7692 85.136C55.7692 85.724 55.8859 86.2373 56.1192 86.676C56.3526 87.1053 56.6652 87.4367 57.0572 87.67C57.4492 87.894 57.8832 88.006 58.3592 88.006C58.8352 88.006 59.2692 87.894 59.6612 87.67C60.0626 87.4367 60.3799 87.1053 60.6132 86.676C60.8466 86.2373 60.9632 85.7287 60.9632 85.15ZM66.4282 82.574C66.6522 82.1353 66.9695 81.7947 67.3802 81.552C67.8002 81.3093 68.3088 81.188 68.9062 81.188V82.504H68.5702C67.1422 82.504 66.4282 83.2787 66.4282 84.828V89H65.1542V81.328H66.4282V82.574ZM72.6808 82.378V86.9C72.6808 87.2733 72.7602 87.5393 72.9188 87.698C73.0775 87.8473 73.3528 87.922 73.7448 87.922H74.6828V89H73.5348C72.8255 89 72.2935 88.8367 71.9388 88.51C71.5842 88.1833 71.4068 87.6467 71.4068 86.9V82.378H70.4128V81.328H71.4068V79.396H72.6808V81.328H74.6828V82.378H72.6808ZM83.9764 84.87C83.9764 85.1127 83.9624 85.3693 83.9344 85.64H77.8024C77.8491 86.396 78.1058 86.9887 78.5724 87.418C79.0484 87.838 79.6224 88.048 80.2944 88.048C80.8451 88.048 81.3024 87.922 81.6664 87.67C82.0398 87.4087 82.3011 87.0633 82.4504 86.634H83.8224C83.6171 87.3713 83.2064 87.9733 82.5904 88.44C81.9744 88.8973 81.2091 89.126 80.2944 89.126C79.5664 89.126 78.9131 88.9627 78.3344 88.636C77.7651 88.3093 77.3171 87.8473 76.9904 87.25C76.6638 86.6433 76.5004 85.9433 76.5004 85.15C76.5004 84.3567 76.6591 83.6613 76.9764 83.064C77.2938 82.4667 77.7371 82.0093 78.3064 81.692C78.8851 81.3653 79.5478 81.202 80.2944 81.202C81.0224 81.202 81.6664 81.3607 82.2264 81.678C82.7864 81.9953 83.2158 82.434 83.5144 82.994C83.8224 83.5447 83.9764 84.17 83.9764 84.87ZM82.6604 84.604C82.6604 84.1187 82.5531 83.7033 82.3384 83.358C82.1238 83.0033 81.8298 82.7373 81.4564 82.56C81.0924 82.3733 80.6864 82.28 80.2384 82.28C79.5944 82.28 79.0438 82.4853 78.5864 82.896C78.1384 83.3067 77.8818 83.876 77.8164 84.604H82.6604ZM95.6341 81.188C96.2314 81.188 96.7634 81.314 97.2301 81.566C97.6967 81.8087 98.0654 82.1773 98.3361 82.672C98.6067 83.1667 98.7421 83.7687 98.7421 84.478V89H97.4821V84.66C97.4821 83.8947 97.2907 83.3113 96.9081 82.91C96.5347 82.4993 96.0261 82.294 95.3821 82.294C94.7194 82.294 94.1921 82.5087 93.8001 82.938C93.4081 83.358 93.2121 83.9693 93.2121 84.772V89H91.9521V84.66C91.9521 83.8947 91.7607 83.3113 91.3781 82.91C91.0047 82.4993 90.4961 82.294 89.8521 82.294C89.1894 82.294 88.6621 82.5087 88.2701 82.938C87.8781 83.358 87.6821 83.9693 87.6821 84.772V89H86.4081V81.328H87.6821V82.434C87.9341 82.0327 88.2701 81.7247 88.6901 81.51C89.1194 81.2953 89.5907 81.188 90.1041 81.188C90.7481 81.188 91.3174 81.3327 91.8121 81.622C92.3067 81.9113 92.6754 82.336 92.9181 82.896C93.1327 82.3547 93.4874 81.9347 93.9821 81.636C94.4767 81.3373 95.0274 81.188 95.6341 81.188ZM108.582 84.87C108.582 85.1127 108.568 85.3693 108.54 85.64H102.408C102.455 86.396 102.711 86.9887 103.178 87.418C103.654 87.838 104.228 88.048 104.9 88.048C105.451 88.048 105.908 87.922 106.272 87.67C106.645 87.4087 106.907 87.0633 107.056 86.634H108.428C108.223 87.3713 107.812 87.9733 107.196 88.44C106.58 88.8973 105.815 89.126 104.9 89.126C104.172 89.126 103.519 88.9627 102.94 88.636C102.371 88.3093 101.923 87.8473 101.596 87.25C101.269 86.6433 101.106 85.9433 101.106 85.15C101.106 84.3567 101.265 83.6613 101.582 83.064C101.899 82.4667 102.343 82.0093 102.912 81.692C103.491 81.3653 104.153 81.202 104.9 81.202C105.628 81.202 106.272 81.3607 106.832 81.678C107.392 81.9953 107.821 82.434 108.12 82.994C108.428 83.5447 108.582 84.17 108.582 84.87ZM107.266 84.604C107.266 84.1187 107.159 83.7033 106.944 83.358C106.729 83.0033 106.435 82.7373 106.062 82.56C105.698 82.3733 105.292 82.28 104.844 82.28C104.2 82.28 103.649 82.4853 103.192 82.896C102.744 83.3067 102.487 83.876 102.422 84.604H107.266ZM114.752 81.188C115.685 81.188 116.441 81.4727 117.02 82.042C117.598 82.602 117.888 83.414 117.888 84.478V89H116.628V84.66C116.628 83.8947 116.436 83.3113 116.054 82.91C115.671 82.4993 115.148 82.294 114.486 82.294C113.814 82.294 113.277 82.504 112.876 82.924C112.484 83.344 112.288 83.9553 112.288 84.758V89H111.014V81.328H112.288V82.42C112.54 82.028 112.88 81.7247 113.31 81.51C113.748 81.2953 114.229 81.188 114.752 81.188ZM122.273 82.378V86.9C122.273 87.2733 122.352 87.5393 122.511 87.698C122.669 87.8473 122.945 87.922 123.337 87.922H124.275V89H123.127C122.417 89 121.885 88.8367 121.531 88.51C121.176 88.1833 120.999 87.6467 120.999 86.9V82.378H120.005V81.328H120.999V79.396H122.273V81.328H124.275V82.378H122.273Z" fill="#053250"/>
<g opacity="0.7">
<path opacity="0.7" d="M98.5933 70.0005H50.7383L51.0679 34.0229L64.7541 30.3867H84.1057L98.2636 32.9627L98.5933 70.0005Z" fill="url(#paint0_linear_525_33943)"/>
</g>
<path d="M97.9308 69.5465H51.3984L51.7301 34.476L64.7983 30.8418H84.3395L97.5992 33.4157L97.9308 69.5465Z" fill="#EEEEEE"/>
<g opacity="0.7">
<path opacity="0.7" d="M69.2382 14.8828H65.7461V21.8269H69.2382V14.8828Z" fill="url(#paint1_linear_525_33943)"/>
</g>
<g opacity="0.7">
<path opacity="0.7" d="M65.7448 36.2746V28.7695H50.5761L48 36.2746V37.0444H65.8395V36.2746H65.7448Z" fill="url(#paint2_linear_525_33943)"/>
</g>
<path d="M65.7447 36.2847H48.1895L50.738 28.8652H65.7447V36.2847Z" fill="#006464"/>
<path opacity="0.1" d="M65.7447 36.2847H48.1895L50.738 28.8652H65.7447V36.2847Z" fill="black"/>
<path d="M65.8414 36.2832H48.1895V37.045H65.8414V36.2832Z" fill="#006464"/>
<g opacity="0.7">
<path opacity="0.7" d="M98.4181 28.8652H83.21V36.4558H83.1133V37.2355H101V36.4558L98.4181 28.8652Z" fill="url(#paint3_linear_525_33943)"/>
</g>
<path d="M83.207 36.4741H100.764L98.2158 29.0566H83.207V36.4741Z" fill="#006464"/>
<path opacity="0.1" d="M83.207 36.4741H100.764L98.2158 29.0566H83.207V36.4741Z" fill="black"/>
<path d="M83.1117 37.2344H100.764V36.4725H83.1117V37.2344Z" fill="#006464"/>
<path opacity="0.5" d="M62.4409 56.5898H52.9082V62.5811H62.4409V56.5898Z" fill="#006464"/>
<path opacity="0.1" d="M63.0096 62.1523H52.3438V63.1986H63.0096V62.1523Z" fill="black"/>
<path d="M63.0096 62.0605H52.3438V63.1068H63.0096V62.0605Z" fill="#535461"/>
<g opacity="0.1">
<path opacity="0.1" d="M62.4409 56.5898H52.9082V58.9669H62.4409V56.5898Z" fill="black"/>
</g>
<path opacity="0.5" d="M96.1382 56.5898H86.6055V62.5811H96.1382V56.5898Z" fill="#006464"/>
<path opacity="0.1" d="M96.7049 62.1523H86.0391V63.1986H96.7049V62.1523Z" fill="black"/>
<path d="M96.7049 62.0605H86.0391V63.1068H96.7049V62.0605Z" fill="#535461"/>
<g opacity="0.1">
<path opacity="0.1" d="M96.1382 56.5898H86.6055V58.9669H96.1382V56.5898Z" fill="black"/>
</g>
<path opacity="0.5" d="M96.1382 42.6074H86.6055V48.5987H96.1382V42.6074Z" fill="#006464"/>
<path opacity="0.1" d="M96.7049 48.1738H86.0391V49.2201H96.7049V48.1738Z" fill="black"/>
<path d="M96.7049 48.0781H86.0391V49.1244H96.7049V48.0781Z" fill="#535461"/>
<g opacity="0.1">
<path opacity="0.1" d="M96.1382 42.6074H86.6055V44.9844H96.1382V42.6074Z" fill="black"/>
</g>
<path opacity="0.5" d="M62.7241 42.6074H53.1914V48.5987H62.7241V42.6074Z" fill="#006464"/>
<path opacity="0.1" d="M63.2908 48.1738H52.625V49.2201H63.2908V48.1738Z" fill="black"/>
<path d="M63.2908 48.0781H52.625V49.1244H63.2908V48.0781Z" fill="#535461"/>
<g opacity="0.1">
<path opacity="0.1" d="M62.7241 42.6074H53.1914V44.9844H62.7241V42.6074Z" fill="black"/>
</g>
<g opacity="0.7">
<path opacity="0.7" d="M86.1488 24.8866L74.5078 15.8141L63.2379 24.8806L62.3535 23.7667L74.4939 14L87.0154 23.7587L86.1488 24.8866Z" fill="url(#paint4_linear_525_33943)"/>
</g>
<path opacity="0.1" d="M64.1878 37.0449H51.6348V37.1885H64.1878V37.0449Z" fill="black"/>
<path opacity="0.1" d="M97.6971 37.2344H85.002V37.378H97.6971V37.2344Z" fill="black"/>
<path d="M69.1444 14.9785H65.8398V21.8271H69.1444V14.9785Z" fill="#535461"/>
<g opacity="0.7">
<path opacity="0.7" d="M85.0503 69.7163H63.9062V23.6736L74.5701 23.2539L85.0503 23.6736V69.7163Z" fill="url(#paint5_linear_525_33943)"/>
</g>
<path d="M84.765 69.7164H64.1875V23.4908L74.4763 15.6934L84.9546 23.7772L84.765 69.7164Z" fill="white"/>
<path d="M77.0726 60.9648H71.8809V69.7151H77.0726V60.9648Z" fill="#535461"/>
<path opacity="0.1" d="M79.8104 53.1191H69.1445V54.1654H79.8104V53.1191Z" fill="black"/>
<path opacity="0.5" d="M79.2437 47.5547H69.7109V53.546H79.2437V47.5547Z" fill="#006464"/>
<path d="M79.8104 53.0234H69.1445V54.0697H79.8104V53.0234Z" fill="#535461"/>
<g opacity="0.1">
<path opacity="0.1" d="M79.2437 47.5547H69.7109V49.9317H79.2437V47.5547Z" fill="black"/>
</g>
<path opacity="0.5" d="M79.2437 35.8086H69.7109V41.7999H79.2437V35.8086Z" fill="#006464"/>
<path d="M79.8104 41.2773H69.1445V42.3236H79.8104V41.2773Z" fill="#535461"/>
<g opacity="0.1">
<path opacity="0.1" d="M79.2437 35.8086H69.7109V38.1856H79.2437V35.8086Z" fill="black"/>
</g>
<path opacity="0.5" d="M79.2437 24.0605H69.7109V30.0518H79.2437V24.0605Z" fill="#006464"/>
<path d="M79.8104 29.5312H69.1445V30.5775H79.8104V29.5312Z" fill="#535461"/>
<g opacity="0.1">
<path opacity="0.1" d="M79.2437 24.0605H69.7109V26.4376H79.2437V24.0605Z" fill="black"/>
</g>
<path d="M86.1488 25.2206L74.5078 16.1461L63.2379 25.2126L62.3535 24.0987L74.4939 14.332L87.0154 24.0908L86.1488 25.2206Z" fill="#006464"/>
<path d="M76.3185 65.7188C76.5267 65.7188 76.6955 65.5487 76.6955 65.3389C76.6955 65.1291 76.5267 64.959 76.3185 64.959C76.1102 64.959 75.9414 65.1291 75.9414 65.3389C75.9414 65.5487 76.1102 65.7188 76.3185 65.7188Z" fill="#E0E0E0"/>
<defs>
<linearGradient id="paint0_linear_525_33943" x1="35236.6" y1="11182.8" x2="35236.6" y2="3293.77" gradientUnits="userSpaceOnUse">
<stop stop-color="#808080" stop-opacity="0.25"/>
<stop offset="0.54" stop-color="#808080" stop-opacity="0.12"/>
<stop offset="1" stop-color="#808080" stop-opacity="0.1"/>
</linearGradient>
<linearGradient id="paint1_linear_525_33943" x1="2506.45" y1="288.133" x2="2506.45" y2="45.7146" gradientUnits="userSpaceOnUse">
<stop stop-color="#808080" stop-opacity="0.25"/>
<stop offset="0.54" stop-color="#808080" stop-opacity="0.12"/>
<stop offset="1" stop-color="#808080" stop-opacity="0.1"/>
</linearGradient>
<linearGradient id="paint2_linear_525_33943" x1="11561.1" y1="987.408" x2="11561.1" y2="643.175" gradientUnits="userSpaceOnUse">
<stop stop-color="#808080" stop-opacity="0.25"/>
<stop offset="0.54" stop-color="#808080" stop-opacity="0.12"/>
<stop offset="1" stop-color="#808080" stop-opacity="0.1"/>
</linearGradient>
<linearGradient id="paint3_linear_525_33943" x1="14810.5" y1="1006.6" x2="14810.5" y2="654.378" gradientUnits="userSpaceOnUse">
<stop stop-color="#808080" stop-opacity="0.25"/>
<stop offset="0.54" stop-color="#808080" stop-opacity="0.12"/>
<stop offset="1" stop-color="#808080" stop-opacity="0.1"/>
</linearGradient>
<linearGradient id="paint4_linear_525_33943" x1="18197.7" y1="609.822" x2="18197.7" y2="14" gradientUnits="userSpaceOnUse">
<stop stop-color="#808080" stop-opacity="0.25"/>
<stop offset="0.54" stop-color="#808080" stop-opacity="0.12"/>
<stop offset="1" stop-color="#808080" stop-opacity="0.1"/>
</linearGradient>
<linearGradient id="paint5_linear_525_33943" x1="15590" y1="13037.4" x2="15590" y2="2184.68" gradientUnits="userSpaceOnUse">
<stop stop-color="#808080" stop-opacity="0.25"/>
<stop offset="0.54" stop-color="#808080" stop-opacity="0.12"/>
<stop offset="1" stop-color="#808080" stop-opacity="0.1"/>
</linearGradient>
</defs>
</svg>
