<svg width="148" height="106" viewBox="0 0 148 106" fill="none" xmlns="http://www.w3.org/2000/svg">
<rect width="148" height="106" fill="#006464"/>
<path d="M30.8898 89H32.2338L28.7198 79.298H27.2498L23.7218 89H25.0658L25.8498 86.83H30.1058L30.8898 89ZM29.7418 85.794H26.2138L27.9778 80.866L29.7418 85.794ZM35.7954 82.742V81.328H34.5214V92.64H35.7954V87.586C36.2714 88.37 37.2654 89.126 38.6654 89.126C40.7234 89.126 42.3054 87.516 42.3054 85.136C42.3054 82.742 40.7234 81.202 38.6654 81.202C37.2654 81.202 36.2574 81.93 35.7954 82.742ZM41.0034 85.136C41.0034 86.942 39.8134 88.006 38.3994 88.006C37.0134 88.006 35.7954 86.956 35.7954 85.15C35.7954 83.372 37.0134 82.308 38.3994 82.308C39.8134 82.308 41.0034 83.33 41.0034 85.136ZM46.0063 82.742V81.328H44.7323V92.64H46.0063V87.586C46.4823 88.37 47.4763 89.126 48.8763 89.126C50.9343 89.126 52.5163 87.516 52.5163 85.136C52.5163 82.742 50.9343 81.202 48.8763 81.202C47.4763 81.202 46.4683 81.93 46.0063 82.742ZM51.2143 85.136C51.2143 86.942 50.0243 88.006 48.6103 88.006C47.2243 88.006 46.0063 86.956 46.0063 85.15C46.0063 83.372 47.2243 82.308 48.6103 82.308C50.0243 82.308 51.2143 83.33 51.2143 85.136ZM54.4672 85.136C54.4672 87.516 56.0492 89.126 58.0932 89.126C59.5072 89.126 60.5012 88.398 60.9632 87.572V89H62.2512V81.328H60.9632V82.728C60.5152 81.93 59.5352 81.202 58.1072 81.202C56.0492 81.202 54.4672 82.742 54.4672 85.136ZM60.9632 85.15C60.9632 86.956 59.7592 88.006 58.3592 88.006C56.9592 88.006 55.7692 86.942 55.7692 85.136C55.7692 83.33 56.9592 82.308 58.3592 82.308C59.7592 82.308 60.9632 83.372 60.9632 85.15ZM66.4282 84.828C66.4282 83.05 67.3522 82.504 68.5702 82.504H68.9062V81.188C67.6882 81.188 66.8622 81.72 66.4282 82.574V81.328H65.1542V89H66.4282V84.828ZM71.4068 86.9C71.4068 88.44 72.1768 89 73.5348 89H74.6828V87.922H73.7448C72.9608 87.922 72.6808 87.656 72.6808 86.9V82.378H74.6828V81.328H72.6808V79.396H71.4068V81.328H70.4128V82.378H71.4068V86.9ZM80.2384 82.28C81.5544 82.28 82.6744 83.106 82.6604 84.604H77.8164C77.9564 83.106 78.9924 82.28 80.2384 82.28ZM83.8224 86.634H82.4504C82.1704 87.46 81.4424 88.048 80.2944 88.048C78.9924 88.048 77.9004 87.194 77.8024 85.64H83.9344C83.9624 85.374 83.9764 85.15 83.9764 84.87C83.9764 82.77 82.5204 81.202 80.2944 81.202C78.0544 81.202 76.5004 82.728 76.5004 85.15C76.5004 87.586 78.1104 89.126 80.2944 89.126C82.1984 89.126 83.4304 88.034 83.8224 86.634ZM97.4821 89H98.7421V84.478C98.7421 82.28 97.3841 81.188 95.6341 81.188C94.4581 81.188 93.3661 81.79 92.9181 82.896C92.4141 81.748 91.3641 81.188 90.1041 81.188C89.0961 81.188 88.1861 81.622 87.6821 82.434V81.328H86.4081V89H87.6821V84.772C87.6821 83.12 88.5641 82.294 89.8521 82.294C91.1121 82.294 91.9521 83.092 91.9521 84.66V89H93.2121V84.772C93.2121 83.12 94.0941 82.294 95.3821 82.294C96.6421 82.294 97.4821 83.092 97.4821 84.66V89ZM104.844 82.28C106.16 82.28 107.28 83.106 107.266 84.604H102.422C102.562 83.106 103.598 82.28 104.844 82.28ZM108.428 86.634H107.056C106.776 87.46 106.048 88.048 104.9 88.048C103.598 88.048 102.506 87.194 102.408 85.64H108.54C108.568 85.374 108.582 85.15 108.582 84.87C108.582 82.77 107.126 81.202 104.9 81.202C102.66 81.202 101.106 82.728 101.106 85.15C101.106 87.586 102.716 89.126 104.9 89.126C106.804 89.126 108.036 88.034 108.428 86.634ZM116.628 89H117.888V84.478C117.888 82.28 116.53 81.188 114.752 81.188C113.716 81.188 112.792 81.622 112.288 82.42V81.328H111.014V89H112.288V84.758C112.288 83.106 113.184 82.294 114.486 82.294C115.774 82.294 116.628 83.092 116.628 84.66V89ZM120.999 86.9C120.999 88.44 121.769 89 123.127 89H124.275V87.922H123.337C122.553 87.922 122.273 87.656 122.273 86.9V82.378H124.275V81.328H122.273V79.396H120.999V81.328H120.005V82.378H120.999V86.9Z" fill="#FCFCFC"/>
<g opacity="0.7">
<path opacity="0.7" d="M98.5933 70.0005H50.7383L51.0679 34.0229L64.7541 30.3867H84.1057L98.2636 32.9627L98.5933 70.0005Z" fill="url(#paint0_linear_525_34589)"/>
</g>
<path d="M97.9308 69.5465H51.3984L51.7301 34.476L64.7983 30.8418H84.3395L97.5992 33.4157L97.9308 69.5465Z" fill="#EEEEEE"/>
<g opacity="0.7">
<path opacity="0.7" d="M69.2382 14.8828H65.7461V21.8269H69.2382V14.8828Z" fill="url(#paint1_linear_525_34589)"/>
</g>
<g opacity="0.7">
<path opacity="0.7" d="M65.7448 36.2746V28.7695H50.5761L48 36.2746V37.0444H65.8395V36.2746H65.7448Z" fill="url(#paint2_linear_525_34589)"/>
</g>
<path d="M65.7447 36.2847H48.1895L50.738 28.8652H65.7447V36.2847Z" fill="#006464"/>
<path opacity="0.1" d="M65.7447 36.2847H48.1895L50.738 28.8652H65.7447V36.2847Z" fill="black"/>
<path d="M65.8414 36.2842H48.1895V37.046H65.8414V36.2842Z" fill="#006464"/>
<g opacity="0.7">
<path opacity="0.7" d="M98.4181 28.8652H83.21V36.4558H83.1133V37.2355H101V36.4558L98.4181 28.8652Z" fill="url(#paint3_linear_525_34589)"/>
</g>
<path d="M83.207 36.4732H100.764L98.2158 29.0557H83.207V36.4732Z" fill="#006464"/>
<path opacity="0.1" d="M83.207 36.4732H100.764L98.2158 29.0557H83.207V36.4732Z" fill="black"/>
<path d="M83.1117 37.2354H100.764V36.4735H83.1117V37.2354Z" fill="#006464"/>
<path opacity="0.5" d="M62.4409 56.5898H52.9082V62.5811H62.4409V56.5898Z" fill="#006464"/>
<path opacity="0.1" d="M63.0096 62.1533H52.3438V63.1996H63.0096V62.1533Z" fill="black"/>
<path d="M63.0096 62.0596H52.3438V63.1059H63.0096V62.0596Z" fill="#535461"/>
<g opacity="0.1">
<path opacity="0.1" d="M62.4409 56.5898H52.9082V58.9669H62.4409V56.5898Z" fill="black"/>
</g>
<path opacity="0.5" d="M96.1382 56.5898H86.6055V62.5811H96.1382V56.5898Z" fill="#006464"/>
<path opacity="0.1" d="M96.7049 62.1533H86.0391V63.1996H96.7049V62.1533Z" fill="black"/>
<path d="M96.7049 62.0596H86.0391V63.1059H96.7049V62.0596Z" fill="#535461"/>
<g opacity="0.1">
<path opacity="0.1" d="M96.1382 56.5898H86.6055V58.9669H96.1382V56.5898Z" fill="black"/>
</g>
<path opacity="0.5" d="M96.1382 42.6074H86.6055V48.5987H96.1382V42.6074Z" fill="#006464"/>
<path opacity="0.1" d="M96.7049 48.1738H86.0391V49.2201H96.7049V48.1738Z" fill="black"/>
<path d="M96.7049 48.0781H86.0391V49.1244H96.7049V48.0781Z" fill="#535461"/>
<g opacity="0.1">
<path opacity="0.1" d="M96.1382 42.6074H86.6055V44.9844H96.1382V42.6074Z" fill="black"/>
</g>
<path opacity="0.5" d="M62.7241 42.6074H53.1914V48.5987H62.7241V42.6074Z" fill="#006464"/>
<path opacity="0.1" d="M63.2908 48.1738H52.625V49.2201H63.2908V48.1738Z" fill="black"/>
<path d="M63.2908 48.0781H52.625V49.1244H63.2908V48.0781Z" fill="#535461"/>
<g opacity="0.1">
<path opacity="0.1" d="M62.7241 42.6074H53.1914V44.9844H62.7241V42.6074Z" fill="black"/>
</g>
<g opacity="0.7">
<path opacity="0.7" d="M86.1488 24.8866L74.5078 15.8141L63.2379 24.8806L62.3535 23.7667L74.4939 14L87.0154 23.7587L86.1488 24.8866Z" fill="url(#paint4_linear_525_34589)"/>
</g>
<path opacity="0.1" d="M64.1878 37.0439H51.6348V37.1875H64.1878V37.0439Z" fill="black"/>
<path opacity="0.1" d="M97.6971 37.2354H85.002V37.3789H97.6971V37.2354Z" fill="black"/>
<path d="M69.1444 14.9785H65.8398V21.8271H69.1444V14.9785Z" fill="#535461"/>
<g opacity="0.7">
<path opacity="0.7" d="M85.0503 69.7163H63.9062V23.6736L74.5701 23.2539L85.0503 23.6736V69.7163Z" fill="url(#paint5_linear_525_34589)"/>
</g>
<path d="M84.765 69.7155H64.1875V23.4898L74.4763 15.6924L84.9546 23.7763L84.765 69.7155Z" fill="white"/>
<path d="M77.0726 60.9658H71.8809V69.7161H77.0726V60.9658Z" fill="#535461"/>
<path opacity="0.1" d="M79.8104 53.1191H69.1445V54.1654H79.8104V53.1191Z" fill="black"/>
<path opacity="0.5" d="M79.2437 47.5547H69.7109V53.546H79.2437V47.5547Z" fill="#006464"/>
<path d="M79.8104 53.0234H69.1445V54.0697H79.8104V53.0234Z" fill="#535461"/>
<g opacity="0.1">
<path opacity="0.1" d="M79.2437 47.5547H69.7109V49.9317H79.2437V47.5547Z" fill="black"/>
</g>
<path opacity="0.5" d="M79.2437 35.8086H69.7109V41.7999H79.2437V35.8086Z" fill="#006464"/>
<path d="M79.8104 41.2773H69.1445V42.3236H79.8104V41.2773Z" fill="#535461"/>
<g opacity="0.1">
<path opacity="0.1" d="M79.2437 35.8086H69.7109V38.1856H79.2437V35.8086Z" fill="black"/>
</g>
<path opacity="0.5" d="M79.2437 24.0615H69.7109V30.0528H79.2437V24.0615Z" fill="#006464"/>
<path d="M79.8104 29.5312H69.1445V30.5775H79.8104V29.5312Z" fill="#535461"/>
<g opacity="0.1">
<path opacity="0.1" d="M79.2437 24.0615H69.7109V26.4385H79.2437V24.0615Z" fill="black"/>
</g>
<path d="M86.1488 25.2206L74.5078 16.1461L63.2379 25.2126L62.3535 24.0987L74.4939 14.332L87.0154 24.0908L86.1488 25.2206Z" fill="#006464"/>
<path d="M76.3185 65.7198C76.5267 65.7198 76.6955 65.5497 76.6955 65.3399C76.6955 65.1301 76.5267 64.96 76.3185 64.96C76.1102 64.96 75.9414 65.1301 75.9414 65.3399C75.9414 65.5497 76.1102 65.7198 76.3185 65.7198Z" fill="#E0E0E0"/>
<defs>
<linearGradient id="paint0_linear_525_34589" x1="35236.6" y1="11182.8" x2="35236.6" y2="3293.77" gradientUnits="userSpaceOnUse">
<stop stop-color="#808080" stop-opacity="0.25"/>
<stop offset="0.54" stop-color="#808080" stop-opacity="0.12"/>
<stop offset="1" stop-color="#808080" stop-opacity="0.1"/>
</linearGradient>
<linearGradient id="paint1_linear_525_34589" x1="2506.45" y1="288.133" x2="2506.45" y2="45.7146" gradientUnits="userSpaceOnUse">
<stop stop-color="#808080" stop-opacity="0.25"/>
<stop offset="0.54" stop-color="#808080" stop-opacity="0.12"/>
<stop offset="1" stop-color="#808080" stop-opacity="0.1"/>
</linearGradient>
<linearGradient id="paint2_linear_525_34589" x1="11561.1" y1="987.408" x2="11561.1" y2="643.175" gradientUnits="userSpaceOnUse">
<stop stop-color="#808080" stop-opacity="0.25"/>
<stop offset="0.54" stop-color="#808080" stop-opacity="0.12"/>
<stop offset="1" stop-color="#808080" stop-opacity="0.1"/>
</linearGradient>
<linearGradient id="paint3_linear_525_34589" x1="14810.5" y1="1006.6" x2="14810.5" y2="654.378" gradientUnits="userSpaceOnUse">
<stop stop-color="#808080" stop-opacity="0.25"/>
<stop offset="0.54" stop-color="#808080" stop-opacity="0.12"/>
<stop offset="1" stop-color="#808080" stop-opacity="0.1"/>
</linearGradient>
<linearGradient id="paint4_linear_525_34589" x1="18197.7" y1="609.822" x2="18197.7" y2="14" gradientUnits="userSpaceOnUse">
<stop stop-color="#808080" stop-opacity="0.25"/>
<stop offset="0.54" stop-color="#808080" stop-opacity="0.12"/>
<stop offset="1" stop-color="#808080" stop-opacity="0.1"/>
</linearGradient>
<linearGradient id="paint5_linear_525_34589" x1="15590" y1="13037.4" x2="15590" y2="2184.68" gradientUnits="userSpaceOnUse">
<stop stop-color="#808080" stop-opacity="0.25"/>
<stop offset="0.54" stop-color="#808080" stop-opacity="0.12"/>
<stop offset="1" stop-color="#808080" stop-opacity="0.1"/>
</linearGradient>
</defs>
</svg>
