<svg width="40" height="40" viewBox="0 0 40 40" fill="none" xmlns="http://www.w3.org/2000/svg">
<rect width="40" height="40" rx="4" fill="#C7D0D9"/>
<g opacity="0.7">
<path opacity="0.7" d="M31.3644 32.9994H8.79102L8.94652 16.2956L15.4023 14.6074H24.5305L31.2089 15.8034L31.3644 32.9994Z" fill="url(#paint0_linear_784_4747)"/>
</g>
<path d="M31.053 32.7903H9.10352L9.25995 16.5076L15.4243 14.8203H24.6419L30.8966 16.0154L31.053 32.7903Z" fill="#EEEEEE"/>
<g opacity="0.7">
<path opacity="0.7" d="M17.5183 7.41016H15.8711V10.6342H17.5183V7.41016Z" fill="url(#paint1_linear_784_4747)"/>
</g>
<g opacity="0.7">
<path opacity="0.7" d="M15.8703 17.3419V13.8574H8.71517L7.5 17.3419V17.6993H15.915V17.3419H15.8703Z" fill="url(#paint2_linear_784_4747)"/>
</g>
<path d="M15.8707 17.3471H7.58984L8.79198 13.9023H15.8707V17.3471Z" fill="#6193CD"/>
<path opacity="0.1" d="M15.8707 17.3471H7.58984L8.79198 13.9023H15.8707V17.3471Z" fill="#232F3C"/>
<path d="M15.9163 17.3457H7.58984V17.6994H15.9163V17.3457Z" fill="#6193CD"/>
<g opacity="0.7">
<path opacity="0.7" d="M31.2818 13.9023H24.1081V17.4265H24.0625V17.7885H32.4998V17.4265L31.2818 13.9023Z" fill="url(#paint3_linear_784_4747)"/>
</g>
<path d="M24.1074 17.4341H32.3892L31.1871 13.9902H24.1074V17.4341Z" fill="#6193CD"/>
<path opacity="0.1" d="M24.1074 17.4341H32.3892L31.1871 13.9902H24.1074V17.4341Z" fill="#232F3C"/>
<path d="M24.0622 17.7871H32.3887V17.4334H24.0622V17.7871Z" fill="#6193CD"/>
<path opacity="0.5" d="M14.3111 26.7734H9.81445V29.5551H14.3111V26.7734Z" fill="#6193CD"/>
<path opacity="0.1" d="M14.5799 29.3574H9.54883V29.8432H14.5799V29.3574Z" fill="#232F3C"/>
<path d="M14.5799 29.3125H9.54883V29.7983H14.5799V29.3125Z" fill="#516273"/>
<g opacity="0.1">
<path opacity="0.1" d="M14.3111 26.7734H9.81445V27.8771H14.3111V26.7734Z" fill="#232F3C"/>
</g>
<path opacity="0.5" d="M30.2075 26.7734H25.7109V29.5551H30.2075V26.7734Z" fill="#6193CD"/>
<path opacity="0.1" d="M30.4745 29.3574H25.4434V29.8432H30.4745V29.3574Z" fill="#232F3C"/>
<path d="M30.4745 29.3125H25.4434V29.7983H30.4745V29.3125Z" fill="#516273"/>
<g opacity="0.1">
<path opacity="0.1" d="M30.2075 26.7734H25.7109V27.8771H30.2075V26.7734Z" fill="#232F3C"/>
</g>
<path opacity="0.5" d="M30.2075 20.2812H25.7109V23.0629H30.2075V20.2812Z" fill="#6193CD"/>
<path opacity="0.1" d="M30.4745 22.8652H25.4434V23.3511H30.4745V22.8652Z" fill="#232F3C"/>
<path d="M30.4745 22.8223H25.4434V23.3081H30.4745V22.8223Z" fill="#516273"/>
<g opacity="0.1">
<path opacity="0.1" d="M30.2075 20.2812H25.7109V21.3849H30.2075V20.2812Z" fill="#232F3C"/>
</g>
<path opacity="0.5" d="M14.4458 20.2812H9.94922V23.0629H14.4458V20.2812Z" fill="#6193CD"/>
<path opacity="0.1" d="M14.7127 22.8652H9.68164V23.3511H14.7127V22.8652Z" fill="#232F3C"/>
<path d="M14.7127 22.8223H9.68164V23.3081H14.7127V22.8223Z" fill="#516273"/>
<g opacity="0.1">
<path opacity="0.1" d="M14.4458 20.2812H9.94922V21.3849H14.4458V20.2812Z" fill="#232F3C"/>
</g>
<g opacity="0.7">
<path opacity="0.7" d="M25.4958 12.0545L20.0047 7.84225L14.6886 12.0517L14.2715 11.5345L19.9982 7L25.9046 11.5308L25.4958 12.0545Z" fill="url(#paint4_linear_784_4747)"/>
</g>
<path opacity="0.1" d="M15.1361 17.6992H9.21484V17.7657H15.1361V17.6992Z" fill="#232F3C"/>
<path opacity="0.1" d="M30.9415 17.7871H24.9531V17.8536H30.9415V17.7871Z" fill="#232F3C"/>
<path d="M17.4728 7.45508H15.9141V10.6348H17.4728V7.45508Z" fill="#516273"/>
<g opacity="0.7">
<path opacity="0.7" d="M24.9757 32.8686H15.002V11.4917L20.0321 11.2969L24.9757 11.4917V32.8686Z" fill="url(#paint5_linear_784_4747)"/>
</g>
<path d="M24.8413 32.8672H15.1348V11.4054L19.988 7.78516L24.9306 11.5384L24.8413 32.8672Z" fill="#FCFCFC"/>
<path d="M21.2126 28.8047H18.7637V32.8673H21.2126V28.8047Z" fill="#516273"/>
<path opacity="0.1" d="M22.5057 25.1621H17.4746V25.6479H22.5057V25.1621Z" fill="#232F3C"/>
<path opacity="0.5" d="M22.2368 22.5781H17.7402V25.3598H22.2368V22.5781Z" fill="#6193CD"/>
<path d="M22.5057 25.1172H17.4746V25.603H22.5057V25.1172Z" fill="#516273"/>
<g opacity="0.1">
<path opacity="0.1" d="M22.2368 22.5781H17.7402V23.6817H22.2368V22.5781Z" fill="#232F3C"/>
</g>
<path opacity="0.5" d="M22.2368 17.125H17.7402V19.9067H22.2368V17.125Z" fill="#6193CD"/>
<path d="M22.5057 19.6641H17.4746V20.1499H22.5057V19.6641Z" fill="#516273"/>
<g opacity="0.1">
<path opacity="0.1" d="M22.2368 17.125H17.7402V18.2286H22.2368V17.125Z" fill="#232F3C"/>
</g>
<path opacity="0.5" d="M22.2368 11.6719H17.7402V14.4535H22.2368V11.6719Z" fill="#6193CD"/>
<path d="M22.5057 14.2109H17.4746V14.6968H22.5057V14.2109Z" fill="#516273"/>
<g opacity="0.1">
<path opacity="0.1" d="M22.2368 11.6719H17.7402V12.7755H22.2368V11.6719Z" fill="#232F3C"/>
</g>
<path d="M25.4958 12.2097L20.0047 7.99655L14.6886 12.206L14.2715 11.6888L19.9982 7.1543L25.9046 11.6851L25.4958 12.2097Z" fill="#6193CD"/>
<path d="M20.8576 31.013C20.9559 31.013 21.0355 30.934 21.0355 30.8366C21.0355 30.7391 20.9559 30.6602 20.8576 30.6602C20.7594 30.6602 20.6797 30.7391 20.6797 30.8366C20.6797 30.934 20.7594 31.013 20.8576 31.013Z" fill="#C7D0D9"/>
<defs>
<linearGradient id="paint0_linear_784_4747" x1="16606.1" y1="5192.51" x2="16606.1" y2="1529.74" gradientUnits="userSpaceOnUse">
<stop stop-color="#808080" stop-opacity="0.25"/>
<stop offset="0.54" stop-color="#808080" stop-opacity="0.12"/>
<stop offset="1" stop-color="#808080" stop-opacity="0.1"/>
</linearGradient>
<linearGradient id="paint1_linear_784_4747" x1="1167.16" y1="134.276" x2="1167.16" y2="21.7248" gradientUnits="userSpaceOnUse">
<stop stop-color="#808080" stop-opacity="0.25"/>
<stop offset="0.54" stop-color="#808080" stop-opacity="0.12"/>
<stop offset="1" stop-color="#808080" stop-opacity="0.1"/>
</linearGradient>
<linearGradient id="paint2_linear_784_4747" x1="5438.26" y1="458.938" x2="5438.26" y2="299.116" gradientUnits="userSpaceOnUse">
<stop stop-color="#808080" stop-opacity="0.25"/>
<stop offset="0.54" stop-color="#808080" stop-opacity="0.12"/>
<stop offset="1" stop-color="#808080" stop-opacity="0.1"/>
</linearGradient>
<linearGradient id="paint3_linear_784_4747" x1="6971" y1="467.849" x2="6971" y2="304.318" gradientUnits="userSpaceOnUse">
<stop stop-color="#808080" stop-opacity="0.25"/>
<stop offset="0.54" stop-color="#808080" stop-opacity="0.12"/>
<stop offset="1" stop-color="#808080" stop-opacity="0.1"/>
</linearGradient>
<linearGradient id="paint4_linear_784_4747" x1="8568.77" y1="283.63" x2="8568.77" y2="7" gradientUnits="userSpaceOnUse">
<stop stop-color="#808080" stop-opacity="0.25"/>
<stop offset="0.54" stop-color="#808080" stop-opacity="0.12"/>
<stop offset="1" stop-color="#808080" stop-opacity="0.1"/>
</linearGradient>
<linearGradient id="paint5_linear_784_4747" x1="7338.72" y1="6053.53" x2="7338.72" y2="1014.81" gradientUnits="userSpaceOnUse">
<stop stop-color="#808080" stop-opacity="0.25"/>
<stop offset="0.54" stop-color="#808080" stop-opacity="0.12"/>
<stop offset="1" stop-color="#808080" stop-opacity="0.1"/>
</linearGradient>
</defs>
</svg>
