<svg width="189" height="30" viewBox="0 0 189 30" fill="none" xmlns="http://www.w3.org/2000/svg">
<path d="M117.749 4.23978C111.992 4.23978 106.989 4.26939 101.994 4.23385C92.5564 4.16574 83.119 4.24333 73.6865 4.18884C70.5599 4.17048 67.4333 4.09289 64.3068 4.02595C61.2793 3.96406 58.2832 3.83036 55.36 3.62673C51.3999 3.34617 47.6292 2.92346 44.1693 2.37221C41.0861 1.88355 38.289 1.30605 35.4775 0.729725C34.3928 0.507015 33.313 0.286082 32.2163 0.0633715C32.0527 0.0285301 31.8497 0.00689369 31.6347 0.00138529C31.4196 -0.00412311 31.2029 0.00676096 31.0137 0.0325699C30.5736 0.0864705 30.398 0.184202 30.3956 0.313919C30.3809 0.950139 29.9622 1.58188 29.1546 2.18623C28.4572 2.71398 27.0454 3.07469 25.0829 3.33472C22.6081 3.66523 19.9096 3.81153 17.2112 3.95783C16.177 4.01707 15.1452 3.8986 14.1183 3.86365C10.9175 3.75439 7.68384 3.71475 4.45481 3.74519C3.05988 3.75704 2.36723 4.00226 1.88382 4.28479C1.41616 4.57399 1.17148 4.88212 1.1623 5.1934C1.0637 6.11089 1.08053 7.02957 0.921798 7.94529C0.705343 9.27148 0.705343 10.5983 0.527369 11.9239C0.397497 12.903 0.563445 13.8821 0.363826 14.8588C0.0607898 16.3396 0.363824 17.8203 0.178635 19.297C-0.088325 21.3612 0.00547219 23.426 0.0704081 25.4902C0.104079 26.6067 0.344582 27.728 1.69141 28.8113C2.27583 29.2798 3.09114 29.7057 5.08733 29.9101C5.53608 29.9603 6.01895 29.9894 6.51112 29.9959C10.7632 30.0196 14.9889 29.9367 19.2098 29.8183C21.9227 29.7436 24.6452 29.6903 27.3653 29.6275C30.5712 29.5541 33.7795 29.4783 36.9855 29.4078C38.2096 29.3811 39.4386 29.4019 40.6724 29.3651C42.2236 29.3201 43.799 29.3266 45.3694 29.3101C54.1551 29.2194 62.9455 29.2668 71.7336 29.2704C75.4229 29.2704 79.1146 29.3148 82.7968 29.3622C85.8391 29.4007 88.8839 29.4167 91.9239 29.4516C95.6397 29.4937 99.3507 29.56 103.069 29.5926C105.493 29.6139 107.917 29.6518 110.344 29.6814C114.363 29.7247 118.379 29.794 122.396 29.8526C122.518 29.8526 122.636 29.8526 122.766 29.8526C125.722 29.8692 128.683 29.8651 131.634 29.9065C137.305 29.9853 142.978 29.945 148.647 29.9361C152.425 29.9296 156.211 29.8769 159.975 29.7987C164.304 29.7081 168.657 29.6139 172.962 29.4392C176.683 29.2881 180.432 29.1673 184.054 28.896C185.215 28.8163 186.299 28.6802 187.243 28.4956C189.059 28.1242 189.191 27.6208 188.751 27.1025C188.311 26.5842 187.722 26.06 187.375 25.5287C186.988 24.9364 187.135 24.337 187.303 23.7435C187.407 23.3561 187.428 22.9705 187.402 22.5849C187.337 21.6899 187.561 20.7967 187.82 19.9059C188.109 18.9179 188.381 17.9305 188.583 16.9408C188.746 16.1352 188.183 15.3415 188.342 14.5389C188.554 13.4503 188.734 12.361 188.958 11.2729C189.056 10.6083 188.983 9.94278 188.741 9.28037C188.66 9.00909 188.638 8.73663 188.566 8.46476C188.4 7.8375 188.424 7.20787 188.325 6.57942C188.236 6.02739 188.119 5.47594 187.95 4.92509C187.84 4.5697 186.967 4.38668 185.509 4.37838L185.324 4.37838C175.889 4.31915 166.449 4.36772 157.016 4.31915C149.308 4.27946 141.595 4.33574 133.894 4.27414C128.269 4.2303 122.629 4.27769 117.749 4.23978Z" fill="#E6F0FA"/>
</svg>
