<svg width="21" height="16" viewBox="0 0 21 16" fill="none" xmlns="http://www.w3.org/2000/svg">
<path fill-rule="evenodd" clip-rule="evenodd" d="M10.7373 4.42857C8.75189 4.42857 7.02956 5.96689 7.02956 8C7.02956 10.0331 8.75189 11.5714 10.7373 11.5714C12.7227 11.5714 14.4451 10.0331 14.4451 8C14.4451 5.96689 12.7227 4.42857 10.7373 4.42857ZM9.31125 8C9.31125 7.35059 9.8874 6.71429 10.7373 6.71429C11.5872 6.71429 12.1634 7.35059 12.1634 8C12.1634 8.64941 11.5872 9.28571 10.7373 9.28571C9.8874 9.28571 9.31125 8.64941 9.31125 8Z" fill="#006464"/>
<path fill-rule="evenodd" clip-rule="evenodd" d="M10.7373 0C6.63728 0 3.17088 2.57126 1.08853 6.20905C0.45356 7.31832 0.453564 8.68176 1.08854 9.79103C3.1709 13.4288 6.63727 16 10.7373 16C14.8373 16 18.3037 13.4287 20.3861 9.79095C21.021 8.68168 21.021 7.31823 20.3861 6.20897C18.3037 2.57122 14.8373 0 10.7373 0ZM3.81014 7.77246C5.49328 4.83208 8.04982 3.14286 10.7373 3.14286C13.4248 3.14286 15.9813 4.83205 17.6645 7.7724C17.7452 7.91334 17.7452 8.0866 17.6645 8.22754C15.9813 11.1679 13.4248 12.8571 10.7373 12.8571C8.0498 12.8571 5.49328 11.1679 3.81014 8.2276C3.72946 8.08666 3.72946 7.9134 3.81014 7.77246Z" fill="#006464"/>
</svg>
