<svg width="148" height="106" viewBox="0 0 148 106" fill="none" xmlns="http://www.w3.org/2000/svg">
<rect width="148" height="106" fill="#006464"/>
<path d="M58.0063 79.312V89H56.7323V81.776L53.5123 89H52.6163L49.3823 81.762V89H48.1083V79.312H49.4803L53.0643 87.32L56.6483 79.312H58.0063ZM60.4409 85.136C60.4409 84.352 60.5995 83.666 60.9169 83.078C61.2342 82.4807 61.6682 82.0187 62.2189 81.692C62.7789 81.3653 63.3995 81.202 64.0809 81.202C64.7529 81.202 65.3362 81.3467 65.8309 81.636C66.3255 81.9253 66.6942 82.2893 66.9369 82.728V81.328H68.2249V89H66.9369V87.572C66.6849 88.02 66.3069 88.3933 65.8029 88.692C65.3082 88.9813 64.7295 89.126 64.0669 89.126C63.3855 89.126 62.7695 88.958 62.2189 88.622C61.6682 88.286 61.2342 87.8147 60.9169 87.208C60.5995 86.6013 60.4409 85.9107 60.4409 85.136ZM66.9369 85.15C66.9369 84.5713 66.8202 84.0673 66.5869 83.638C66.3535 83.2087 66.0362 82.882 65.6349 82.658C65.2429 82.4247 64.8089 82.308 64.3329 82.308C63.8569 82.308 63.4229 82.42 63.0309 82.644C62.6389 82.868 62.3262 83.1947 62.0929 83.624C61.8595 84.0533 61.7429 84.5573 61.7429 85.136C61.7429 85.724 61.8595 86.2373 62.0929 86.676C62.3262 87.1053 62.6389 87.4367 63.0309 87.67C63.4229 87.894 63.8569 88.006 64.3329 88.006C64.8089 88.006 65.2429 87.894 65.6349 87.67C66.0362 87.4367 66.3535 87.1053 66.5869 86.676C66.8202 86.2373 66.9369 85.7287 66.9369 85.15ZM71.7858 80.082C71.5431 80.082 71.3378 79.998 71.1698 79.83C71.0018 79.662 70.9178 79.4567 70.9178 79.214C70.9178 78.9713 71.0018 78.766 71.1698 78.598C71.3378 78.43 71.5431 78.346 71.7858 78.346C72.0191 78.346 72.2151 78.43 72.3738 78.598C72.5418 78.766 72.6258 78.9713 72.6258 79.214C72.6258 79.4567 72.5418 79.662 72.3738 79.83C72.2151 79.998 72.0191 80.082 71.7858 80.082ZM72.4018 81.328V89H71.1278V81.328H72.4018ZM78.0391 89.126C77.4511 89.126 76.9238 89.028 76.4571 88.832C75.9905 88.6267 75.6218 88.3467 75.3511 87.992C75.0805 87.628 74.9311 87.2127 74.9031 86.746H76.2191C76.2565 87.1287 76.4338 87.4413 76.7511 87.684C77.0778 87.9267 77.5025 88.048 78.0251 88.048C78.5105 88.048 78.8931 87.9407 79.1731 87.726C79.4531 87.5113 79.5931 87.2407 79.5931 86.914C79.5931 86.578 79.4438 86.3307 79.1451 86.172C78.8465 86.004 78.3845 85.8407 77.7591 85.682C77.1898 85.5327 76.7231 85.3833 76.3591 85.234C76.0045 85.0753 75.6965 84.8467 75.4351 84.548C75.1831 84.24 75.0571 83.8387 75.0571 83.344C75.0571 82.952 75.1738 82.5927 75.4071 82.266C75.6405 81.9393 75.9718 81.6827 76.4011 81.496C76.8305 81.3 77.3205 81.202 77.8711 81.202C78.7205 81.202 79.4065 81.4167 79.9291 81.846C80.4518 82.2753 80.7318 82.8633 80.7691 83.61H79.4951C79.4671 83.2087 79.3038 82.8867 79.0051 82.644C78.7158 82.4013 78.3238 82.28 77.8291 82.28C77.3718 82.28 77.0078 82.378 76.7371 82.574C76.4665 82.77 76.3311 83.0267 76.3311 83.344C76.3311 83.596 76.4105 83.806 76.5691 83.974C76.7371 84.1327 76.9425 84.2633 77.1851 84.366C77.4371 84.4593 77.7825 84.5667 78.2211 84.688C78.7718 84.8373 79.2198 84.9867 79.5651 85.136C79.9105 85.276 80.2045 85.4907 80.4471 85.78C80.6991 86.0693 80.8298 86.4473 80.8391 86.914C80.8391 87.334 80.7225 87.712 80.4891 88.048C80.2558 88.384 79.9245 88.65 79.4951 88.846C79.0751 89.0327 78.5898 89.126 78.0391 89.126ZM86.7336 89.126C86.0149 89.126 85.3616 88.9627 84.7736 88.636C84.1949 88.3093 83.7376 87.8473 83.4016 87.25C83.0749 86.6433 82.9116 85.9433 82.9116 85.15C82.9116 84.366 83.0796 83.6753 83.4156 83.078C83.7609 82.4713 84.2276 82.0093 84.8156 81.692C85.4036 81.3653 86.0616 81.202 86.7896 81.202C87.5176 81.202 88.1756 81.3653 88.7636 81.692C89.3516 82.0093 89.8136 82.4667 90.1496 83.064C90.4949 83.6613 90.6676 84.3567 90.6676 85.15C90.6676 85.9433 90.4902 86.6433 90.1356 87.25C89.7902 87.8473 89.3189 88.3093 88.7216 88.636C88.1242 88.9627 87.4616 89.126 86.7336 89.126ZM86.7336 88.006C87.1909 88.006 87.6202 87.8987 88.0216 87.684C88.4229 87.4693 88.7449 87.1473 88.9876 86.718C89.2396 86.2887 89.3656 85.766 89.3656 85.15C89.3656 84.534 89.2442 84.0113 89.0016 83.582C88.7589 83.1527 88.4416 82.8353 88.0496 82.63C87.6576 82.4153 87.2329 82.308 86.7756 82.308C86.3089 82.308 85.8796 82.4153 85.4876 82.63C85.1049 82.8353 84.7969 83.1527 84.5636 83.582C84.3302 84.0113 84.2136 84.534 84.2136 85.15C84.2136 85.7753 84.3256 86.3027 84.5496 86.732C84.7829 87.1613 85.0909 87.4833 85.4736 87.698C85.8562 87.9033 86.2762 88.006 86.7336 88.006ZM96.8306 81.188C97.764 81.188 98.52 81.4727 99.0986 82.042C99.6773 82.602 99.9666 83.414 99.9666 84.478V89H98.7066V84.66C98.7066 83.8947 98.5153 83.3113 98.1326 82.91C97.75 82.4993 97.2273 82.294 96.5646 82.294C95.8926 82.294 95.356 82.504 94.9546 82.924C94.5626 83.344 94.3666 83.9553 94.3666 84.758V89H93.0926V81.328H94.3666V82.42C94.6186 82.028 94.9593 81.7247 95.3886 81.51C95.8273 81.2953 96.308 81.188 96.8306 81.188Z" fill="#FCFCFC"/>
<g opacity="0.7">
<path opacity="0.7" d="M65.329 18.1592H60.0879V28.7516H65.329V18.1592Z" fill="url(#paint0_linear_847_45586)"/>
</g>
<path d="M65.1857 18.3066H60.2305V28.7527H65.1857V18.3066Z" fill="#535461"/>
<g opacity="0.7">
<path opacity="0.7" d="M88.9782 68.0001H57.2559V28.2452L73.255 27.8809L88.9782 28.2452V68.0001Z" fill="url(#paint1_linear_847_45586)"/>
</g>
<path d="M88.6268 68.0002H57.752V28.2452L73.1894 16.999L88.6268 28.2452V68.0002Z" fill="white"/>
<path d="M77.0831 54.6494H69.293V67.9964H77.0831V54.6494Z" fill="#535461"/>
<path opacity="0.5" d="M80.3412 34.1934H66.0371V43.3354H80.3412V34.1934Z" fill="#006464"/>
<path d="M81.1899 42.5352H65.1875V44.132H81.1899V42.5352Z" fill="#535461"/>
<g opacity="0.1">
<path opacity="0.1" d="M80.3412 34.1934H66.0371V37.8195H80.3412V34.1934Z" fill="black"/>
</g>
<g opacity="0.7">
<path opacity="0.7" d="M90.7005 31.6088L73.2325 17.7681L56.3261 31.5986L55 29.8962L73.2125 15L92 29.886L90.7005 31.6088Z" fill="url(#paint2_linear_847_45586)"/>
</g>
<path d="M90.7005 31.7524L73.2325 17.9117L56.3261 31.7422L55 30.0432L73.2125 15.1436L92 30.0329L90.7005 31.7524Z" fill="#C7D0D9"/>
<path d="M75.9517 61.9057C76.2637 61.9057 76.5167 61.6465 76.5167 61.3269C76.5167 61.0072 76.2637 60.748 75.9517 60.748C75.6397 60.748 75.3867 61.0072 75.3867 61.3269C75.3867 61.6465 75.6397 61.9057 75.9517 61.9057Z" fill="#E0E0E0"/>
<defs>
<linearGradient id="paint0_linear_847_45586" x1="239.857" y1="1775.45" x2="239.857" y2="1445.92" gradientUnits="userSpaceOnUse">
<stop stop-color="#808080" stop-opacity="0.25"/>
<stop offset="0.54" stop-color="#808080" stop-opacity="0.12"/>
<stop offset="1" stop-color="#808080" stop-opacity="0.1"/>
</linearGradient>
<linearGradient id="paint1_linear_847_45586" x1="2138.88" y1="11308.2" x2="2138.88" y2="6580.96" gradientUnits="userSpaceOnUse">
<stop stop-color="#808080" stop-opacity="0.25"/>
<stop offset="0.54" stop-color="#808080" stop-opacity="0.12"/>
<stop offset="1" stop-color="#808080" stop-opacity="0.1"/>
</linearGradient>
<linearGradient id="paint2_linear_847_45586" x1="2525.86" y1="2909.75" x2="2525.86" y2="2099.57" gradientUnits="userSpaceOnUse">
<stop stop-color="#808080" stop-opacity="0.25"/>
<stop offset="0.54" stop-color="#808080" stop-opacity="0.12"/>
<stop offset="1" stop-color="#808080" stop-opacity="0.1"/>
</linearGradient>
</defs>
</svg>
