<svg width="24" height="24" viewBox="0 0 24 24" fill="none" xmlns="http://www.w3.org/2000/svg">
<path fill-rule="evenodd" clip-rule="evenodd" d="M16.1152 9.85626C16.1152 13.1223 13.4096 15.77 10.072 15.77C6.73443 15.77 4.0288 13.1223 4.0288 9.85626C4.0288 6.59018 6.73443 3.94251 10.072 3.94251C13.4096 3.94251 16.1152 6.59018 16.1152 9.85626ZM15.3053 18.2793C13.7801 19.1887 11.9886 19.7125 10.072 19.7125C4.50938 19.7125 0 15.2997 0 9.85626C0 4.4128 4.50938 0 10.072 0C15.6346 0 20.144 4.4128 20.144 9.85626C20.144 11.9976 19.4461 13.9795 18.2609 15.596L24 21.2122L21.1512 24L15.3053 18.2793Z" fill="#006464"/>
</svg>
