<svg width="152" height="30" viewBox="0 0 152 30" fill="none" xmlns="http://www.w3.org/2000/svg">
<path d="M94.6978 4.23978C90.0673 4.23978 86.0442 4.26939 82.0268 4.23385C74.4369 4.16574 66.8471 4.24333 59.2611 4.18884C56.7466 4.17048 54.2321 4.09289 51.7176 4.02595C49.2828 3.96406 46.8732 3.83036 44.5223 3.62673C41.3375 3.34617 38.3049 2.92346 35.5224 2.37221C33.0428 1.88355 30.7933 1.30605 28.5322 0.729725C27.6598 0.507015 26.7914 0.286082 25.9094 0.0633715C25.7779 0.0285301 25.6146 0.00689369 25.4416 0.00138529C25.2687 -0.00412311 25.0944 0.00676096 24.9423 0.0325699C24.5883 0.0864705 24.4471 0.184202 24.4452 0.313919C24.4333 0.950139 24.0966 1.58188 23.4471 2.18623C22.8862 2.71398 21.7508 3.07469 20.1725 3.33472C18.1822 3.66523 16.012 3.81153 13.8418 3.95783C13.0101 4.01707 12.1803 3.8986 11.3544 3.86365C8.7802 3.75439 6.1796 3.71475 3.5827 3.74519C2.46086 3.75704 1.9038 4.00226 1.51503 4.28479C1.13892 4.57399 0.94214 4.88212 0.934762 5.1934C0.855459 6.11089 0.868998 7.02957 0.74134 7.94529C0.56726 9.27148 0.56726 10.5983 0.424128 11.9239C0.31968 12.903 0.453141 13.8821 0.292601 14.8588C0.0488891 16.3396 0.292599 17.8203 0.143664 19.297C-0.0710338 21.3612 0.00440091 23.426 0.0566245 25.4902C0.0837033 26.6067 0.277124 27.728 1.36029 28.8113C1.8303 29.2798 2.486 29.7057 4.0914 29.9101C4.4523 29.9603 4.84064 29.9894 5.23646 29.9959C8.65615 30.0196 12.0546 29.9367 15.4491 29.8183C17.6309 29.7436 19.8204 29.6903 22.008 29.6275C24.5864 29.5541 27.1666 29.4783 29.7449 29.4078C30.7294 29.3811 31.7178 29.4019 32.7101 29.3651C33.9576 29.3201 35.2246 29.3266 36.4876 29.3101C43.5533 29.2194 50.6228 29.2668 57.6905 29.2704C60.6576 29.2704 63.6266 29.3148 66.5879 29.3622C69.0347 29.4007 71.4834 29.4167 73.9282 29.4516C76.9166 29.4937 79.9011 29.56 82.8914 29.5926C84.8411 29.6139 86.7908 29.6518 88.7424 29.6814C91.9745 29.7247 95.2046 29.794 98.4347 29.8526C98.5334 29.8526 98.6282 29.8526 98.7326 29.8526C101.11 29.8692 103.491 29.8651 105.864 29.9065C110.425 29.9853 114.988 29.945 119.547 29.9361C122.585 29.9296 125.63 29.8769 128.657 29.7987C132.138 29.7081 135.639 29.6139 139.102 29.4392C142.094 29.2881 145.109 29.1673 148.022 28.896C148.956 28.8163 149.828 28.6802 150.587 28.4956C152.047 28.1242 152.154 27.6208 151.8 27.1025C151.446 26.5842 150.972 26.06 150.693 25.5287C150.382 24.9364 150.5 24.337 150.635 23.7435C150.719 23.3561 150.736 22.9705 150.715 22.5849C150.662 21.6899 150.842 20.7967 151.051 19.9059C151.283 18.9179 151.502 17.9305 151.664 16.9408C151.796 16.1352 151.343 15.3415 151.471 14.5389C151.641 13.4503 151.786 12.361 151.966 11.2729C152.045 10.6083 151.987 9.94278 151.792 9.28037C151.726 9.00909 151.709 8.73663 151.651 8.46476C151.517 7.8375 151.537 7.20787 151.457 6.57942C151.386 6.02739 151.291 5.47594 151.156 4.92509C151.067 4.5697 150.365 4.38668 149.192 4.37838L149.044 4.37838C141.456 4.31915 133.864 4.36772 126.278 4.31915C120.079 4.27946 113.876 4.33574 107.682 4.27414C103.158 4.2303 98.6224 4.27769 94.6978 4.23978Z" fill="#E6F0FA"/>
</svg>
