<svg width="20" height="35" viewBox="0 0 20 35" fill="none" xmlns="http://www.w3.org/2000/svg">
<path d="M9.37333 7.42667C9.59556 7.63111 9.87111 7.73333 10.2 7.73333C10.5289 7.73333 10.8 7.63111 11.0133 7.42667C11.2356 7.21333 11.3467 6.95111 11.3467 6.64C11.3467 6.32889 11.2356 6.07111 11.0133 5.86667C10.8 5.65333 10.5289 5.54667 10.2 5.54667C9.87111 5.54667 9.59556 5.65333 9.37333 5.86667C9.16 6.07111 9.05333 6.32889 9.05333 6.64C9.05333 6.95111 9.16 7.21333 9.37333 7.42667Z" fill="#E91630"/>
<path d="M11.12 16V8.61333H9.25333V16H11.12Z" fill="#E91630"/>
<path fill-rule="evenodd" clip-rule="evenodd" d="M20 11C20 16.5228 15.5228 21 10 21C4.47715 21 0 16.5228 0 11C0 5.47715 4.47715 1 10 1C15.5228 1 20 5.47715 20 11ZM16.6667 11C16.6667 14.6819 13.6819 17.6667 10 17.6667C6.3181 17.6667 3.33333 14.6819 3.33333 11C3.33333 7.3181 6.3181 4.33333 10 4.33333C13.6819 4.33333 16.6667 7.3181 16.6667 11Z" fill="#E91630"/>
</svg>
