<svg width="15" height="15" viewBox="0 0 15 15" fill="none" xmlns="http://www.w3.org/2000/svg">
<path d="M7.03 4.82C7.19667 4.97333 7.40333 5.05 7.65 5.05C7.89667 5.05 8.1 4.97333 8.26 4.82C8.42667 4.66 8.51 4.46333 8.51 4.23C8.51 3.99667 8.42667 3.80333 8.26 3.65C8.1 3.49 7.89667 3.41 7.65 3.41C7.40333 3.41 7.19667 3.49 7.03 3.65C6.87 3.80333 6.79 3.99667 6.79 4.23C6.79 4.46333 6.87 4.66 7.03 4.82Z" fill="#19738C"/>
<path d="M8.34 11.25V5.71H6.94V11.25H8.34Z" fill="#19738C"/>
<path fill-rule="evenodd" clip-rule="evenodd" d="M15 7.5C15 11.6421 11.6421 15 7.5 15C3.35786 15 0 11.6421 0 7.5C0 3.35786 3.35786 0 7.5 0C11.6421 0 15 3.35786 15 7.5ZM12.5 7.5C12.5 10.2614 10.2614 12.5 7.5 12.5C4.73858 12.5 2.5 10.2614 2.5 7.5C2.5 4.73858 4.73858 2.5 7.5 2.5C10.2614 2.5 12.5 4.73858 12.5 7.5Z" fill="#19738C"/>
</svg>
