<svg width="24" height="31" viewBox="0 0 24 31" fill="none" xmlns="http://www.w3.org/2000/svg">
<path fill-rule="evenodd" clip-rule="evenodd" d="M20.1053 8.36516C20.1053 12.9849 16.4762 16.7299 12 16.7299C7.52373 16.7299 3.89502 12.9853 3.89502 8.36516C3.89502 3.74503 7.52373 0 12 0C16.4762 0 20.1053 3.74543 20.1053 8.36516ZM14.0253 5.23685C13.4258 4.82344 12.721 4.60278 12 4.60278V4.60156C11.0332 4.60263 10.1064 4.99954 9.42292 5.70515C8.73945 6.41076 8.35517 7.36743 8.35444 8.36516C8.35444 9.10929 8.56825 9.83671 8.96883 10.4554C9.3694 11.0741 9.93876 11.5564 10.6049 11.8411C11.271 12.1259 12.004 12.2004 12.7112 12.0553C13.4183 11.9101 14.0679 11.5517 14.5777 11.0256C15.0876 10.4994 15.4348 9.829 15.5754 9.09916C15.7161 8.36933 15.6439 7.61284 15.368 6.92536C15.0921 6.23787 14.6248 5.65027 14.0253 5.23685ZM0 31C0 24.1602 5.37266 18.6153 12 18.6153C18.6273 18.6153 24 24.1602 24 31H18.8452C18.8452 27.1048 15.775 23.9362 12.0008 23.9362C8.22658 23.9362 5.15638 27.1056 5.15638 31H0Z" fill="#002060"/>
</svg>
