<svg width="14" height="18" viewBox="0 0 14 18" fill="none" xmlns="http://www.w3.org/2000/svg">
<g clip-path="url(#clip0_525_33877)">
<path fill-rule="evenodd" clip-rule="evenodd" d="M11.7281 4.85719C11.7281 7.53961 9.61112 9.71414 6.99998 9.71414C4.38884 9.71414 2.27209 7.53985 2.27209 4.85719C2.27209 2.17453 4.38884 0 6.99998 0C9.61112 0 11.7281 2.17477 11.7281 4.85719ZM8.18143 3.04075C7.83172 2.8007 7.42058 2.67258 6.99998 2.67258V2.67188C6.43605 2.6725 5.8954 2.90296 5.49671 3.31267C5.09801 3.72238 4.87385 4.27786 4.87343 4.85719C4.87343 5.28926 4.99815 5.71164 5.23181 6.07089C5.46548 6.43015 5.79761 6.71016 6.18618 6.87551C6.57476 7.04085 7.00234 7.08412 7.41485 6.99982C7.82736 6.91553 8.20628 6.70747 8.50369 6.40194C8.80109 6.09642 9.00362 5.70716 9.08568 5.28339C9.16773 4.85961 9.12562 4.42036 8.96467 4.02118C8.80371 3.62199 8.53115 3.2808 8.18143 3.04075ZM0 18C0 14.0285 3.13405 10.8089 7 10.8089C10.8659 10.8089 14 14.0285 14 18H10.993C10.993 15.7383 9.20207 13.8984 7.00046 13.8984C4.79884 13.8984 3.00789 15.7387 3.00789 18H0Z" fill="#006464"/>
</g>
<defs>
<clipPath id="clip0_525_33877">
<rect width="14" height="18" fill="white"/>
</clipPath>
</defs>
</svg>
